<svg width="26" height="26" viewBox="0 0 26 26" fill="none" xmlns="http://www.w3.org/2000/svg">
<g clip-path="url(#clip0_358_574)">
<path d="M8.83203 0.5744C8.88078 0.408526 8.98196 0.26291 9.12042 0.15936C9.25887 0.0558099 9.42714 -0.000101098 9.60003 1.37235e-07H16C16.1267 9.63099e-05 16.2516 0.0302816 16.3643 0.088071C16.4771 0.14586 16.5745 0.229601 16.6485 0.3324C16.7226 0.435199 16.7712 0.554116 16.7903 0.679361C16.8094 0.804606 16.7985 0.932598 16.7584 1.0528L13.9104 9.6H20C20.1498 9.5999 20.2967 9.64186 20.4238 9.72112C20.5509 9.80037 20.6533 9.91374 20.7191 10.0483C20.785 10.1829 20.8117 10.3332 20.7963 10.4822C20.7809 10.6312 20.724 10.773 20.632 10.8912L9.43203 25.2912C9.31729 25.4394 9.15415 25.5427 8.97107 25.5829C8.78799 25.6231 8.5966 25.5978 8.4303 25.5113C8.26399 25.4248 8.13334 25.2827 8.06114 25.1097C7.98893 24.9367 7.97976 24.7439 8.03523 24.5648L10.9168 15.2H5.60003C5.47565 15.2001 5.35297 15.1711 5.24173 15.1155C5.13049 15.0599 5.03375 14.9791 4.9592 14.8795C4.88465 14.78 4.83434 14.6644 4.81226 14.542C4.79019 14.4196 4.79695 14.2937 4.83203 14.1744L8.83203 0.5744ZM10.1984 1.6L6.66883 13.6H12C12.1252 13.6 12.2487 13.6293 12.3605 13.6857C12.4722 13.7421 12.5692 13.8239 12.6436 13.9246C12.718 14.0253 12.7677 14.1421 12.7888 14.2655C12.8098 14.3889 12.8016 14.5155 12.7648 14.6352L10.848 20.864L18.3648 11.2H12.8C12.6733 11.1999 12.5485 11.1697 12.4357 11.1119C12.323 11.0541 12.2256 10.9704 12.1515 10.8676C12.0775 10.7648 12.0289 10.6459 12.0098 10.5206C11.9907 10.3954 12.0016 10.2674 12.0416 10.1472L14.8896 1.6H10.1984Z" fill="#781616"/>
</g>
<defs>
<clipPath id="clip0_358_574">
<rect width="25.6" height="25.6" fill="white"/>
</clipPath>
</defs>
</svg>
