<svg width="42" height="42" viewBox="0 0 42 42" fill="none" xmlns="http://www.w3.org/2000/svg">
<path d="M31.1251 4.5C31.3498 4.50014 31.5716 4.55076 31.7741 4.64812C31.9766 4.74548 32.1546 4.88709 32.2951 5.0625L32.4076 5.2215L38.7826 15.7215C38.9291 15.9625 39.0047 16.24 39.0008 16.522C38.9968 16.804 38.9134 17.0792 38.7601 17.316L38.6446 17.469L22.1446 36.969C22.0137 37.1235 21.8529 37.2499 21.6719 37.3407C21.4909 37.4314 21.2934 37.4845 21.0913 37.4968C20.8891 37.5092 20.6866 37.4805 20.4959 37.4124C20.3052 37.3444 20.1302 37.2385 19.9816 37.101L19.8556 36.969L3.35557 17.469C3.17356 17.2537 3.05591 16.9915 3.01612 16.7124C2.97632 16.4333 3.01599 16.1486 3.13057 15.891L3.21757 15.7215L9.59257 5.2215C9.7091 5.02932 9.86733 4.86578 10.0556 4.74298C10.2438 4.62017 10.4572 4.54123 10.6801 4.512L10.8751 4.5H31.1251ZM26.2726 18H15.7261L20.9986 31.008L26.2726 18ZM34.2661 18H29.5096L25.1341 28.7925L34.2661 18ZM12.4891 18H7.73257L16.8631 28.7895L12.4891 18ZM14.5111 7.5H11.7166L7.16257 15H12.3676L14.5111 7.5ZM24.3691 7.5H17.6296L15.4861 15H26.5126L24.3691 7.5ZM30.2821 7.5H27.4876L29.6311 15H34.8361L30.2821 7.5Z" fill="#781616"/>
</svg>
