<svg width="32" height="32" viewBox="0 0 32 32" fill="none" xmlns="http://www.w3.org/2000/svg">
<path fill-rule="evenodd" clip-rule="evenodd" d="M4.21198 13.1452C4.21198 6.7961 9.27286 1.61987 15.552 1.61987C21.8311 1.61987 26.892 6.7961 26.892 13.1452C26.892 16.2102 26.0185 19.5021 24.4736 22.3455C22.9314 25.185 20.679 27.6526 17.8602 28.9707C17.1377 29.3089 16.3497 29.4843 15.552 29.4843C14.7542 29.4843 13.9663 29.3089 13.2438 28.9707C10.425 27.6526 8.17255 25.1863 6.63031 22.3455C5.08548 19.5021 4.21198 16.2102 4.21198 13.1452ZM15.552 3.56387C10.3783 3.56387 6.15598 7.83678 6.15598 13.1452C6.15598 15.8629 6.93746 18.8372 8.33844 21.4176C9.74071 24.0005 11.7236 26.1143 14.0668 27.2094C14.5314 27.4271 15.0382 27.5399 15.5513 27.5399C16.0644 27.5399 16.5713 27.4271 17.0359 27.2094C19.3804 26.1143 21.3632 24.0005 22.7655 21.4176C24.1665 18.8385 24.948 15.8629 24.948 13.1452C24.948 7.83678 20.7256 3.56387 15.552 3.56387ZM15.552 10.0439C15.169 10.0439 14.7899 10.1193 14.4361 10.2658C14.0823 10.4124 13.7608 10.6272 13.4901 10.898C13.2193 11.1687 13.0045 11.4902 12.8579 11.844C12.7114 12.1978 12.636 12.5769 12.636 12.9599C12.636 13.3428 12.7114 13.722 12.8579 14.0758C13.0045 14.4296 13.2193 14.751 13.4901 15.0218C13.7608 15.2926 14.0823 15.5074 14.4361 15.6539C14.7899 15.8004 15.169 15.8759 15.552 15.8759C16.3253 15.8759 17.067 15.5687 17.6139 15.0218C18.1608 14.4749 18.468 13.7332 18.468 12.9599C18.468 12.1865 18.1608 11.4448 17.6139 10.898C17.067 10.3511 16.3253 10.0439 15.552 10.0439ZM10.692 12.9599C10.692 11.6709 11.204 10.4348 12.1154 9.52333C13.0269 8.61191 14.263 8.09987 15.552 8.09987C16.8409 8.09987 18.0771 8.61191 18.9885 9.52333C19.8999 10.4348 20.412 11.6709 20.412 12.9599C20.412 14.2488 19.8999 15.485 18.9885 16.3964C18.0771 17.3078 16.8409 17.8199 15.552 17.8199C14.263 17.8199 13.0269 17.3078 12.1154 16.3964C11.204 15.485 10.692 14.2488 10.692 12.9599Z" fill="#781616"/>
</svg>
