<svg width="24" height="24" viewBox="0 0 24 24" fill="none" xmlns="http://www.w3.org/2000/svg">
<path d="M17 6.5H17.5M3 9.4C3 7.16 3 6.04 3.436 5.184C3.81949 4.43139 4.43139 3.81949 5.184 3.436C6.04 3 7.16 3 9.4 3H14.6C16.84 3 17.96 3 18.816 3.436C19.5686 3.81949 20.1805 4.43139 20.564 5.184C21 6.04 21 7.16 21 9.4V14.6C21 16.84 21 17.96 20.564 18.816C20.1805 19.5686 19.5686 20.1805 18.816 20.564C17.96 21 16.84 21 14.6 21H9.4C7.16 21 6.04 21 5.184 20.564C4.43139 20.1805 3.81949 19.5686 3.436 18.816C3 17.96 3 16.84 3 14.6V9.4Z" stroke="#E5D6BF" stroke-width="1.5" stroke-linecap="round" stroke-linejoin="round"/>
<path d="M15.462 11.4871C15.5294 11.9418 15.5065 12.4053 15.3948 12.8512C15.283 13.297 15.0845 13.7165 14.8106 14.0857C14.5367 14.4548 14.1928 14.7664 13.7985 15.0027C13.4042 15.2389 12.9672 15.3952 12.5125 15.4626C12.0578 15.5299 11.5943 15.5071 11.1484 15.3953C10.7026 15.2835 10.2831 15.0851 9.91391 14.8112C9.16836 14.258 8.67307 13.4314 8.53702 12.5131C8.40096 11.5948 8.63528 10.66 9.18842 9.91446C9.74155 9.1689 10.5682 8.67362 11.4865 8.53757C12.4048 8.40151 13.3396 8.63583 14.0851 9.18896C14.8307 9.7421 15.326 10.5688 15.462 11.4871Z" stroke="#E5D6BF" stroke-width="1.5" stroke-linecap="round" stroke-linejoin="round"/>
</svg>
