<svg width="44" height="44" viewBox="0 0 44 44" fill="none" xmlns="http://www.w3.org/2000/svg">
<g clip-path="url(#clip0_358_963)">
<path d="M2.7 0.000457659L0 2.70046L5.94 11.0192C6.19006 11.3695 6.52025 11.6549 6.90303 11.8517C7.28581 12.0485 7.7101 12.1509 8.1405 12.1505H8.3295C8.68449 12.1502 9.03606 12.2199 9.36408 12.3557C9.69209 12.4914 9.99012 12.6905 10.2411 12.9416L17.4636 20.1641L10.3977 27.3299C9.18916 26.9741 7.91435 26.9049 6.67439 27.1276C5.43443 27.3504 4.26344 27.859 3.25431 28.6132C2.24517 29.3674 1.42566 30.3463 0.860769 31.4724C0.295883 32.5984 0.00116694 33.8406 0 35.1005C0.00161855 36.2613 0.25273 37.4082 0.736321 38.4635C1.21991 39.5188 1.92468 40.4579 2.80289 41.217C3.68109 41.9762 4.7122 42.5377 5.82637 42.8635C6.94054 43.1894 8.11173 43.2719 9.26059 43.1056C10.4094 42.9393 11.5091 42.5279 12.4851 41.8995C13.4611 41.271 14.2907 40.4401 14.9175 39.4631C15.5444 38.4861 15.9539 37.3857 16.1183 36.2366C16.2827 35.0874 16.1983 33.9164 15.8706 32.8028L23.0364 25.7369L25.65 28.3505L24.8265 30.8183C24.6683 31.2939 24.6456 31.8043 24.761 32.2921C24.8764 32.7799 25.1253 33.226 25.4799 33.5804L34.3089 42.4094C34.5591 42.661 34.8565 42.8606 35.1841 42.9969C35.5117 43.1331 35.863 43.2033 36.2178 43.2033C36.5726 43.2033 36.9239 43.1331 37.2515 42.9969C37.5791 42.8606 37.8765 42.661 38.1267 42.4094L42.4089 38.1272C42.6605 37.877 42.8602 37.5796 42.9964 37.252C43.1327 36.9244 43.2028 36.5731 43.2028 36.2183C43.2028 35.8635 43.1327 35.5122 42.9964 35.1846C42.8602 34.857 42.6605 34.5595 42.4089 34.3094L33.5799 25.4804C33.2255 25.1258 32.7795 24.8768 32.2916 24.7614C31.8038 24.646 31.2935 24.6687 30.8178 24.827L28.35 25.6505L25.758 23.0585L32.994 15.9224C34.1944 16.2428 35.4523 16.2833 36.6708 16.0407C37.8893 15.798 39.0358 15.2788 40.0219 14.5231C41.0081 13.7673 41.8074 12.7952 42.3585 11.6816C42.9095 10.5681 43.1974 9.34287 43.2 8.10046C43.2 7.37146 43.1082 6.67216 42.9246 6.00256L37.1466 11.7833L32.4 10.8005L31.4172 6.05656L37.1979 0.275858C35.8228 -0.0938769 34.3745 -0.0945671 32.999 0.273857C31.6235 0.642281 30.3695 1.3668 29.3633 2.37438C28.3571 3.38196 27.6342 4.63699 27.2677 6.01297C26.9011 7.38894 26.9038 8.83724 27.2754 10.2119L20.1474 17.4425L12.9411 10.2416C12.4347 9.73533 12.1502 9.04868 12.15 8.33266V8.14096C12.15 7.71101 12.0474 7.28727 11.8506 6.90499C11.6539 6.52272 11.3686 6.19296 11.0187 5.94316L2.7 0.000457659ZM28.7442 28.7447C28.8696 28.6189 29.0186 28.5192 29.1826 28.4511C29.3466 28.3831 29.5224 28.348 29.7 28.348C29.8776 28.348 30.0534 28.3831 30.2174 28.4511C30.3814 28.5192 30.5304 28.6189 30.6558 28.7447L38.5236 36.6152C38.7695 36.8698 38.9056 37.2108 38.9025 37.5648C38.8994 37.9187 38.7575 38.2573 38.5072 38.5076C38.2569 38.7579 37.9183 38.8999 37.5643 38.903C37.2103 38.906 36.8693 38.77 36.6147 38.5241L28.7442 30.6563C28.6185 30.5309 28.5187 30.3819 28.4507 30.2179C28.3826 30.0539 28.3476 29.878 28.3476 29.7005C28.3476 29.5229 28.3826 29.3471 28.4507 29.183C28.5187 29.019 28.6185 28.8701 28.7442 28.7447ZM8.1 29.7005L9.3717 30.3539L10.8 30.4241L11.5749 31.6256L12.7764 32.4005L12.8466 33.8288L13.5 35.1005L12.8466 36.3722L12.7764 37.8005L11.5749 38.5754L10.8 39.7769L9.3717 39.8471L8.1 40.5005L6.8283 39.8471L5.4 39.7769L4.6251 38.5754L3.4236 37.8005L3.3534 36.3722L2.7 35.1005L3.3534 33.8288L3.4236 32.4005L4.6251 31.6256L5.4 30.4241L6.8283 30.3539L8.1 29.7005Z" fill="#781616"/>
</g>
<defs>
<clipPath id="clip0_358_963">
<rect width="43.2" height="43.2" fill="white"/>
</clipPath>
</defs>
</svg>
