<svg width="44" height="44" viewBox="0 0 44 44" fill="none" xmlns="http://www.w3.org/2000/svg">
<path fill-rule="evenodd" clip-rule="evenodd" d="M12.5999 13.95C10.571 13.95 8.62523 14.756 7.19057 16.1906C5.75592 17.6253 4.94994 19.5711 4.94994 21.6C4.94994 23.6289 5.75592 25.5747 7.19057 27.0094C8.62523 28.444 10.571 29.25 12.5999 29.25C13.6745 29.25 14.4809 29.0574 15.1325 28.7388C15.7841 28.422 16.3547 27.9432 16.9073 27.27C17.8793 26.082 18.6767 24.4656 19.7279 22.3362C19.9379 21.9102 20.1599 21.4638 20.3939 20.997L21.0059 19.755C22.0517 17.6292 23.0165 15.669 24.2045 14.22C24.9425 13.3182 25.8065 12.5586 26.8865 12.033C27.9665 11.5074 29.1887 11.25 30.5999 11.25C32.2399 11.25 33.8564 11.6397 35.3162 12.387C36.776 13.1343 38.0374 14.2178 38.9963 15.5482C39.9552 16.8787 40.5842 18.4179 40.8316 20.0391C41.0789 21.6604 40.9374 23.3171 40.4188 24.873C39.9002 26.4288 39.0193 27.8391 37.8487 28.9877C36.6781 30.1363 35.2514 30.9902 33.686 31.4792C32.1206 31.9682 30.4614 32.0782 28.8452 31.8002C27.229 31.5221 25.7019 30.864 24.3899 29.88C24.1035 29.6652 23.9141 29.3454 23.8635 28.9909C23.8129 28.6365 23.9051 28.2764 24.1199 27.99C24.3348 27.7036 24.6546 27.5142 25.009 27.4636C25.3635 27.4129 25.7235 27.5052 26.0099 27.72C26.9797 28.4473 28.1083 28.9337 29.3029 29.1393C30.4976 29.3448 31.7239 29.2635 32.8809 28.902C34.0379 28.5406 35.0925 27.9094 35.9577 27.0605C36.823 26.2115 37.474 25.1691 37.8574 24.0191C38.2407 22.8692 38.3452 21.6446 38.1624 20.4463C37.9796 19.248 37.5147 18.1103 36.8059 17.127C36.0972 16.1436 35.1649 15.3428 34.0859 14.7904C33.0069 14.238 31.8121 13.95 30.5999 13.95C29.5253 13.95 28.7189 14.1426 28.0673 14.4612C27.4157 14.778 26.8451 15.2568 26.2925 15.93C25.3205 17.118 24.5231 18.7344 23.4719 20.8638C23.2619 21.2898 23.0399 21.7362 22.8059 22.203L22.1939 23.445C21.1481 25.5708 20.1833 27.531 18.9953 28.9818C18.2573 29.8818 17.3933 30.6414 16.3133 31.167C15.2333 31.6926 14.0093 31.95 12.5999 31.95C10.96 31.9497 9.34368 31.5598 7.88404 30.8123C6.42441 30.0648 5.16329 28.9811 4.2046 27.6507C3.2459 26.3202 2.61708 24.7809 2.36994 23.1598C2.12281 21.5386 2.26444 19.8819 2.78315 18.3262C3.30187 16.7705 4.18283 15.3603 5.35344 14.2119C6.52405 13.0634 7.95081 12.2095 9.51614 11.7207C11.0815 11.2318 12.7406 11.1218 14.3567 11.3999C15.9729 11.6779 17.4998 12.3361 18.8117 13.32C18.9536 13.4265 19.073 13.5599 19.1633 13.7125C19.2536 13.8652 19.3129 14.0341 19.3379 14.2097C19.3629 14.3853 19.3531 14.5641 19.3089 14.7359C19.2648 14.9077 19.1873 15.0691 19.0808 15.2109C18.9744 15.3527 18.841 15.4722 18.6883 15.5625C18.5357 15.6528 18.3667 15.7121 18.1911 15.7371C18.0155 15.7621 17.8367 15.7522 17.665 15.7081C17.4932 15.664 17.3318 15.5865 17.1899 15.48C15.867 14.4845 14.2556 13.9474 12.5999 13.95Z" fill="#781616"/>
</svg>
