<svg width="29" height="29" viewBox="0 0 29 29" fill="none" xmlns="http://www.w3.org/2000/svg">
<path d="M18.3431 13.0444L15.6712 17.2913C15.5619 17.4428 15.429 17.5757 15.2775 17.6851C14.9118 17.9402 14.4602 18.0408 14.0207 17.9651C13.5813 17.8893 13.1894 17.6433 12.9302 17.2804C12.671 16.9176 12.5654 16.4671 12.6363 16.0268C12.7071 15.5866 12.9488 15.192 13.3087 14.9288L17.5556 12.2569C17.6522 12.1896 17.767 12.1536 17.8847 12.1536C18.0024 12.1536 18.1172 12.1896 18.2137 12.2569C18.335 12.3445 18.4166 12.4764 18.4409 12.624C18.4651 12.7716 18.43 12.9227 18.3431 13.0444Z" fill="#781616"/>
<path d="M14.4 3.6001C7.44187 3.6001 1.8 9.23635 1.8 16.1945C1.79573 19.273 2.92277 22.2457 4.96687 24.5476C5.02875 24.6151 5.085 24.6826 5.14687 24.7445C5.27999 24.8886 5.44157 25.0035 5.6214 25.0819C5.80122 25.1603 5.99537 25.2005 6.19155 25.2C6.38772 25.1995 6.58165 25.1582 6.76105 25.0788C6.94046 24.9994 7.10142 24.8837 7.23375 24.7388C8.14585 23.7476 9.25365 22.9564 10.4871 22.4152C11.7206 21.874 13.053 21.5946 14.4 21.5946C15.747 21.5946 17.0794 21.874 18.3129 22.4152C19.5463 22.9564 20.6542 23.7476 21.5662 24.7388C21.6986 24.8837 21.8595 24.9994 22.0389 25.0788C22.2183 25.1582 22.4123 25.1995 22.6085 25.2C22.8046 25.2005 22.9988 25.1603 23.1786 25.0819C23.3584 25.0035 23.52 24.8886 23.6531 24.7445L23.8331 24.5476C25.8772 22.2457 27.0043 19.273 27 16.1945C27 9.23635 21.3581 3.6001 14.4 3.6001Z" stroke="#781616" stroke-width="1.8" stroke-linecap="round" stroke-linejoin="round"/>
<path d="M14.4 7.19995V8.99995M23.4 16.2H21.6M7.20002 16.2H5.40002M9.30884 11.1088L8.0359 9.83583M19.4912 11.1088L20.7641 9.83583" stroke="#781616" stroke-width="1.8" stroke-miterlimit="10" stroke-linecap="round"/>
</svg>
