<svg width="23" height="13" viewBox="0 0 23 13" fill="none" xmlns="http://www.w3.org/2000/svg">
<path d="M17.9688 7.22228H5.03125C4.62875 7.22228 4.3125 6.9045 4.3125 6.50005C4.3125 6.09561 4.62875 5.77783 5.03125 5.77783H17.9688C18.3713 5.77783 18.6875 6.09561 18.6875 6.50005C18.6875 6.9045 18.3713 7.22228 17.9688 7.22228Z" fill="#781616"/>
<path d="M14.375 12.2778C14.2807 12.279 14.1873 12.2603 14.1006 12.223C14.014 12.1856 13.9361 12.1305 13.8719 12.0611C13.5844 11.7722 13.5844 11.3245 13.8719 11.0356L18.4 6.48558L13.8719 1.93558C13.5844 1.64669 13.5844 1.19891 13.8719 0.910026C14.1594 0.621137 14.605 0.621137 14.8925 0.910026L19.9238 5.96558C20.2113 6.25447 20.2113 6.70225 19.9238 6.99114L14.8925 12.0467C14.7488 12.1911 14.5619 12.2634 14.3894 12.2634L14.375 12.2778Z" fill="#781616"/>
</svg>
