<svg width="29" height="29" viewBox="0 0 29 29" fill="none" xmlns="http://www.w3.org/2000/svg">
<path d="M26.25 28.5C26.8467 28.5 27.419 28.2629 27.841 27.841C28.2629 27.419 28.5 26.8467 28.5 26.25V21C28.5 20.4033 28.2629 19.831 27.841 19.409C27.419 18.987 26.8467 18.75 26.25 18.75C24.495 18.75 22.77 18.48 21.12 17.925C20.7255 17.8005 20.3045 17.7864 19.9025 17.8842C19.5006 17.9821 19.1331 18.1881 18.84 18.48L16.68 20.64C12.9484 18.6036 9.88138 15.5366 7.845 11.805L9.99 9.66C10.605 9.075 10.83 8.205 10.56 7.365C10.02 5.73 9.75 4.005 9.75 2.25C9.75 1.65326 9.51295 1.08097 9.09099 0.65901C8.66903 0.237053 8.09674 0 7.5 0H2.25C1.65326 0 1.08097 0.237053 0.65901 0.65901C0.237053 1.08097 0 1.65326 0 2.25C0 16.725 11.775 28.5 26.25 28.5ZM2.25 1.5H7.5C7.69891 1.5 7.88968 1.57902 8.03033 1.71967C8.17098 1.86032 8.25 2.05109 8.25 2.25C8.25 4.17 8.55 6.045 9.135 7.83C9.21 8.04 9.195 8.34 8.955 8.58L6 11.52C8.475 16.365 12.105 19.995 16.965 22.5L19.89 19.545C20.1 19.335 20.385 19.275 20.655 19.35C22.455 19.95 24.33 20.25 26.25 20.25C26.4489 20.25 26.6397 20.329 26.7803 20.4697C26.921 20.6103 27 20.8011 27 21V26.25C27 26.4489 26.921 26.6397 26.7803 26.7803C26.6397 26.921 26.4489 27 26.25 27C12.6 27 1.5 15.9 1.5 2.25C1.5 2.05109 1.57902 1.86032 1.71967 1.71967C1.86032 1.57902 2.05109 1.5 2.25 1.5Z" fill="#E5D6BF"/>
</svg>
